<?xml version="1.0" encoding="UTF-8"?>
<svg version="1.1" xmlns="http://www.w3.org/2000/svg" width="113" height="137">
<path d="M0 0 C5.42278297 4.63142401 10.67936321 9.62002243 14 16 C14 16.66 14 17.32 14 18 C18.23084903 16.31192092 18.23084903 16.31192092 21 13 C22.65 13.33 24.3 13.66 26 14 C26 14.99 26 15.98 26 17 C25.030625 17.5775 24.06125 18.155 23.0625 18.75 C19.68808318 20.74055264 19.68808318 20.74055264 19.0625 24.4375 C18.87563539 27.82685986 18.87563539 27.82685986 19.484375 30.40625 C22.19610474 44.04707235 18.68342348 59.45771159 11.05859375 70.91796875 C5.19486703 78.52298104 -2.12548159 85.09377182 -11 89 C-12.03447266 89.11601562 -12.03447266 89.11601562 -13.08984375 89.234375 C-15.32504116 89.88467879 -15.32504116 89.88467879 -16.37890625 92.765625 C-16.76949219 93.91546875 -17.16007812 95.0653125 -17.5625 96.25 C-20.70987528 105.37222869 -20.70987528 105.37222869 -23 108 C-25.78599571 108.38060051 -27.93372751 108.47962905 -30.6875 108.3125 C-31.38939453 108.28994141 -32.09128906 108.26738281 -32.81445312 108.24414062 C-34.5438833 108.18531647 -36.27221438 108.09563389 -38 108 C-38.66 106.68 -39.32 105.36 -40 104 C-43.46869697 107.36025998 -43.46869697 107.36025998 -46.5390625 111.078125 C-49.58934228 115.09697703 -51.73967535 117.47890482 -56.875 118.1875 C-61.98247377 118.32850388 -66.34004315 116.99230039 -71 115 C-70.91796875 113.28515625 -70.91796875 113.28515625 -70 111 C-67.79649891 109.32724748 -65.65908056 107.87923168 -63.3125 106.4375 C-52.26792391 99.35285054 -42.14510953 91.61670217 -33.0859375 82.09375 C-31 80 -31 80 -28.828125 78.40625 C-26.22827237 76.40636337 -25.35046844 73.94647659 -24 71 C-23.01 69.515 -23.01 69.515 -22 68 C-20.35 68.33 -18.7 68.66 -17 69 C-16.773125 67.741875 -16.54625 66.48375 -16.3125 65.1875 C-15.05238546 59.41120854 -12.58898683 54.28667158 -10 49 C-9.34 49.33 -8.68 49.66 -8 50 C-8.40699418 62.63085386 -9.6712444 74.0126768 -14 86 C-13.46890625 85.59007813 -12.9378125 85.18015625 -12.390625 84.7578125 C-11.68421875 84.21898438 -10.9778125 83.68015625 -10.25 83.125 C-9.55390625 82.59132813 -8.8578125 82.05765625 -8.140625 81.5078125 C-6 80 -6 80 -3.8515625 78.9609375 C-0.91158946 77.43512871 0.3408309 74.75193219 2 72 C2.47695312 71.28714844 2.95390625 70.57429688 3.4453125 69.83984375 C11.77020004 56.97600999 12.56507407 44.8645873 12 30 C8.31686841 32.05630669 5.41833311 34.33898572 2.375 37.25 C-1.95104317 41.22685582 -6.42123927 44.38198213 -11.45703125 47.39453125 C-15.05462552 49.66582348 -18.20387777 52.15704705 -21.125 55.25 C-27.32002743 61.17567841 -34.02554071 65.87955941 -42 69 C-42.33 69.66 -42.66 70.32 -43 71 C-47.11339633 70.87535163 -48.92708852 69.3239356 -51.6875 66.5 C-52.55955078 65.55640625 -52.55955078 65.55640625 -53.44921875 64.59375 C-54.9284043 62.89864768 -54.9284043 62.89864768 -57 62 C-57 60.35 -57 58.7 -57 57 C-55.50047375 56.39465846 -54.00034778 55.7908025 -52.5 55.1875 C-51.6646875 54.85105469 -50.829375 54.51460938 -49.96875 54.16796875 C-47.69341368 53.27280354 -45.41394866 52.4223641 -43.1171875 51.5859375 C-39.15580965 50.10391943 -35.39440149 48.35056946 -31.625 46.4375 C-30.94655029 46.09452881 -30.26810059 45.75155762 -29.5690918 45.39819336 C-16.48258763 38.72152721 -3.87108269 31.68308875 8 23 C1.77023378 10.67638973 -7.81675675 4.99829059 -20.66015625 0.69140625 C-21.43230469 0.46324219 -22.20445313 0.23507812 -23 0 C-23.62261719 -0.18820312 -24.24523438 -0.37640625 -24.88671875 -0.5703125 C-37.86629715 -3.20941347 -49.94846764 0.08877118 -61.0546875 6.86328125 C-72.05962806 15.01085594 -76.29970424 28.13878641 -78.36132812 41.30810547 C-78.59972592 43.20236767 -78.80347157 45.10093724 -79 47 C-79.66 47 -80.32 47 -81 47 C-82.87740631 36.49192726 -81.39293866 25.29572321 -76 16 C-75.566875 15.24203125 -75.13375 14.4840625 -74.6875 13.703125 C-71.22808687 8.10037982 -67.1588422 4.04577118 -62 0 C-61.30261719 -0.55945312 -60.60523437 -1.11890625 -59.88671875 -1.6953125 C-42.87144098 -14.96146127 -16.77419112 -12.37403713 0 0 Z M-23 78 C-23.33 79.32 -23.66 80.64 -24 82 C-23.34 81.67 -22.68 81.34 -22 81 C-22.33 80.01 -22.66 79.02 -23 78 Z M-25 82 C-27.72426311 84.35277269 -28.8141763 86.62496331 -30 90 C-27.43750025 87.68767578 -27.43750025 87.68767578 -25 85 C-25 84.01 -25 83.02 -25 82 Z M-31 90 C-31 93 -31 93 -31 93 Z M-34 94 C-34 97 -34 97 -34 97 Z " fill="#49A2AA" transform="translate(85,14)"/>
<path d="M0 0 C-1.31833125 15.50514963 -4.63032174 27.59539185 -16 39 C-27.59512015 48.61814432 -27.59512015 48.61814432 -33.08984375 49.234375 C-35.32504116 49.88467879 -35.32504116 49.88467879 -36.37890625 52.765625 C-36.76949219 53.91546875 -37.16007812 55.0653125 -37.5625 56.25 C-40.70987528 65.37222869 -40.70987528 65.37222869 -43 68 C-45.78599571 68.38060051 -47.93372751 68.47962905 -50.6875 68.3125 C-51.38939453 68.28994141 -52.09128906 68.26738281 -52.81445312 68.24414062 C-54.5438833 68.18531647 -56.27221438 68.09563389 -58 68 C-58.66 66.68 -59.32 65.36 -60 64 C-63.46869697 67.36025998 -63.46869697 67.36025998 -66.5390625 71.078125 C-69.58934228 75.09697703 -71.73967535 77.47890482 -76.875 78.1875 C-81.98247377 78.32850388 -86.34004315 76.99230039 -91 75 C-90.91796875 73.28515625 -90.91796875 73.28515625 -90 71 C-87.79649891 69.32724748 -85.65908056 67.87923168 -83.3125 66.4375 C-72.26792391 59.35285054 -62.14510953 51.61670217 -53.0859375 42.09375 C-51 40 -51 40 -48.828125 38.40625 C-46.22827237 36.40636337 -45.35046844 33.94647659 -44 31 C-43.34 30.01 -42.68 29.02 -42 28 C-40.35 28.33 -38.7 28.66 -37 29 C-36.773125 27.741875 -36.54625 26.48375 -36.3125 25.1875 C-35.05238546 19.41120854 -32.58898683 14.28667158 -30 9 C-29.34 9.33 -28.68 9.66 -28 10 C-28.40699418 22.63085386 -29.6712444 34.0126768 -34 46 C-33.46890625 45.59007812 -32.9378125 45.18015625 -32.390625 44.7578125 C-31.68421875 44.21898437 -30.9778125 43.68015625 -30.25 43.125 C-29.55390625 42.59132812 -28.8578125 42.05765625 -28.140625 41.5078125 C-26 40 -26 40 -23.8515625 38.9609375 C-20.91158946 37.43512871 -19.6591691 34.75193219 -18 32 C-17.52304688 31.28714844 -17.04609375 30.57429688 -16.5546875 29.83984375 C-12.77528492 23.99981212 -10.61386367 18.2872623 -8.76171875 11.58984375 C-8 9 -8 9 -7 8 C-6.63239269 5.67182036 -6.29758419 3.3381615 -6 1 C-3.92446352 0.4465236 -2.15634036 0 0 0 Z M-43 38 C-43.33 39.32 -43.66 40.64 -44 42 C-43.34 41.67 -42.68 41.34 -42 41 C-42.33 40.01 -42.66 39.02 -43 38 Z M-45 42 C-47.72426311 44.35277269 -48.8141763 46.62496331 -50 50 C-47.43750025 47.68767578 -47.43750025 47.68767578 -45 45 C-45 44.01 -45 43.02 -45 42 Z M-51 50 C-51 53 -51 53 -51 53 Z M-54 54 C-54 57 -54 57 -54 57 Z " fill="#22506E" transform="translate(105,54)"/>
<path d="M0 0 C5.40124025 4.61302507 10.75536739 9.60807375 14 16 C13.6875 18.3125 13.6875 18.3125 13 20 C13 19.01 13 18.02 13 17 C9.04 17.495 9.04 17.495 5 18 C4.33226563 16.94296875 3.66453125 15.8859375 2.9765625 14.796875 C0.04857659 10.71045194 -3.22846896 8.57118883 -7.625 6.25 C-8.33648193 5.86658447 -9.04796387 5.48316895 -9.78100586 5.08813477 C-21.1597699 -0.86935351 -33.52557044 -3.5163674 -46.1640625 0.06640625 C-55.94336498 3.25361566 -65.17194902 7.97490672 -70.8125 16.9375 C-75.35728017 26.22114348 -77.94086453 36.7655279 -79 47 C-79.66 47 -80.32 47 -81 47 C-82.87740631 36.49192726 -81.39293866 25.29572321 -76 16 C-75.566875 15.24203125 -75.13375 14.4840625 -74.6875 13.703125 C-71.22808687 8.10037982 -67.1588422 4.04577118 -62 0 C-61.30261719 -0.55945312 -60.60523437 -1.11890625 -59.88671875 -1.6953125 C-42.87144098 -14.96146127 -16.77419112 -12.37403713 0 0 Z " fill="#24526F" transform="translate(85,14)"/>
<path d="M0 0 C1.32 0.33 2.64 0.66 4 1 C2.58163643 6.1576857 0.32608425 10.79975258 -3 15 C-3.66 15 -4.32 15 -5 15 C-5.25910156 15.721875 -5.51820312 16.44375 -5.78515625 17.1875 C-7.05071961 20.11742161 -8.56420902 22.42170704 -10.4375 25 C-12.79365583 28.25688927 -14.94736536 31.54444421 -17 35 C-19.66665868 38.64443353 -22.49028359 41.19222687 -26 44 C-26.556875 44.886875 -27.11375 45.77375 -27.6875 46.6875 C-30.76821123 49.76821123 -33.06085049 49.90573651 -37.31640625 50.15234375 C-41.51297515 49.91411058 -45.15836501 48.64243815 -49 47 C-48.91796875 45.28515625 -48.91796875 45.28515625 -48 43 C-45.79649891 41.32724748 -43.65908056 39.87923168 -41.3125 38.4375 C-30.26792391 31.35285054 -20.14510953 23.61670217 -11.0859375 14.09375 C-9 12 -9 12 -6.828125 10.40625 C-4.22827237 8.40636337 -3.35046844 5.94647659 -2 3 C-1.34 2.01 -0.68 1.02 0 0 Z " fill="#4CA2AA" transform="translate(63,82)"/>
<path d="M0 0 C4.1331633 1.03329083 5.95508821 2.77590012 9 5.75 C10.97105392 9.69210784 10.45383884 14.45365901 10 18.75 C8.71456923 21.90570209 7.12048487 24.18975756 4 25.75 C-0.14135035 26.14069343 -2.31186812 26.18382227 -5.875 23.9375 C-9.64414345 20.05749939 -9.45817216 15.72373372 -9.41015625 10.55859375 C-8.84734509 6.70467733 -7.46936233 4.62860415 -4.7109375 1.94140625 C-3 0.75 -3 0.75 0 0 Z " fill="#46A2AC" transform="translate(68,22.25)"/>
<path d="M0 0 C2.475 0.495 2.475 0.495 5 1 C5 1.99 5 2.98 5 4 C3.5459375 4.86625 3.5459375 4.86625 2.0625 5.75 C-1.31191682 7.74055264 -1.31191682 7.74055264 -1.9375 11.4375 C-1.99271357 14.58467328 -1.68362274 16.96167669 -1 20 C-0.96175377 22.33301986 -0.95425716 24.66711508 -1 27 C-1.804375 27.20625 -2.60875 27.4125 -3.4375 27.625 C-4.7059375 28.305625 -4.7059375 28.305625 -6 29 C-6.89830839 32.05272465 -6.89830839 32.05272465 -7 35 C-7.33 35 -7.66 35 -8 35 C-8.08636719 33.83984375 -8.17273438 32.6796875 -8.26171875 31.484375 C-9.09783265 21.75751381 -10.49046311 13.77810615 -15 5 C-14 4 -14 4 -11.125 3.9375 C-9.578125 3.9684375 -9.578125 3.9684375 -8 4 C-4.87099787 4 -3.62581138 3.57548683 -1 2 C-0.67 1.34 -0.34 0.68 0 0 Z " fill="#235270" transform="translate(106,27)"/>
<path d="M0 0 C0.375 3.1875 0.375 3.1875 0 7 C-1.4109015 8.24684318 -2.83591273 9.48439342 -4.3515625 10.6015625 C-13.27378396 18.17065085 -15.85604887 34.94595052 -17 46 C-17.66 46 -18.32 46 -19 46 C-21.51813626 31.90568339 -17.54905529 19.60618404 -9.5859375 8.0859375 C-3.43820225 0 -3.43820225 0 0 0 Z " fill="#3E5F72" transform="translate(23,15)"/>
<path d="M0 0 C0.66 0.33 1.32 0.66 2 1 C1.2867874 23.13418399 1.2867874 23.13418399 -2 31 C-2.99 31.66 -3.98 32.32 -5 33 C-5.6496875 32.0409375 -5.6496875 32.0409375 -6.3125 31.0625 C-7.91239177 28.73253997 -7.91239177 28.73253997 -11 28 C-9.35396233 22.88082285 -7.45242575 17.88268613 -5.5 12.875 C-5.19191406 12.07707031 -4.88382812 11.27914062 -4.56640625 10.45703125 C-4.11587891 9.29880859 -4.11587891 9.29880859 -3.65625 8.1171875 C-3.38619141 7.42222168 -3.11613281 6.72725586 -2.83789062 6.01123047 C-1.98117131 3.95480456 -1.01880899 1.98046258 0 0 Z " fill="#295772" transform="translate(75,63)"/>
<path d="M0 0 C-0.30872329 2.60466543 -0.62181723 5.20867691 -0.9375 7.8125 C-1.06801758 8.91948242 -1.06801758 8.91948242 -1.20117188 10.04882812 C-1.58216546 13.16733121 -2.00369374 16.01108122 -3 19 C-3.99 19 -4.98 19 -6 19 C-6.33 18.01 -6.66 17.02 -7 16 C-7.66 17.32 -8.32 18.64 -9 20 C-9.66 19.67 -10.32 19.34 -11 19 C-10.5247412 17.35303396 -10.04468109 15.70745272 -9.5625 14.0625 C-9.29566406 13.14597656 -9.02882813 12.22945312 -8.75390625 11.28515625 C-8 9 -8 9 -7 8 C-6.63239269 5.67182036 -6.29758419 3.3381615 -6 1 C-3.92446352 0.4465236 -2.15634036 0 0 0 Z " fill="#23516E" transform="translate(105,54)"/>
<path d="M0 0 C4.49763096 0.60545032 6.02617917 2.28865175 9.25 5.4375 C10.54376578 8.02503156 10.41832397 9.98708985 10.4375 12.875 C10.45167969 13.84308594 10.46585938 14.81117187 10.48046875 15.80859375 C10.25 18.4375 10.25 18.4375 8.25 21.4375 C7.59 21.4375 6.93 21.4375 6.25 21.4375 C6.28480469 20.78523438 6.31960937 20.13296875 6.35546875 19.4609375 C6.52610432 13.95184628 6.2863889 10.24511576 3.25 5.4375 C2.30125 5.499375 1.3525 5.56125 0.375 5.625 C-0.65625 5.563125 -1.6875 5.50125 -2.75 5.4375 C-3.41 4.4475 -4.07 3.4575 -4.75 2.4375 C-2.75 0.4375 -2.75 0.4375 0 0 Z " fill="#5AA3A8" transform="translate(67.75,22.5625)"/>
<path d="M0 0 C0.33 0.66 0.66 1.32 1 2 C1.66 2.33 2.32 2.66 3 3 C1.35 3.33 -0.3 3.66 -2 4 C-2.33 4.99 -2.66 5.98 -3 7 C-5.64 7.33 -8.28 7.66 -11 8 C-11.268125 8.78375 -11.53625 9.5675 -11.8125 10.375 C-13 13 -13 13 -16 15 C-16.99 14.34 -17.98 13.68 -19 13 C-19.1875 10.375 -19.1875 10.375 -19 8 C-14.16546228 6.0483526 -9.33287609 4.10717508 -4.4375 2.3125 C-1.21344133 1.34956335 -1.21344133 1.34956335 0 0 Z " fill="#5BA7AB" transform="translate(47,63)"/>
<path d="M0 0 C1.65 0.33 3.3 0.66 5 1 C5 1.99 5 2.98 5 4 C3.576875 4.928125 3.576875 4.928125 2.125 5.875 C-1.1799975 8.1223983 -1.95626388 9.24254998 -3 13 C-3.66 13 -4.32 13 -5 13 C-6.76462683 9.91190305 -7 8.76687864 -7 5 C-6.030625 4.54625 -5.06125 4.0925 -4.0625 3.625 C-0.92920418 2.34213779 -0.92920418 2.34213779 0 0 Z " fill="#94B6BD" transform="translate(106,27)"/>
<path d="M0 0 C0.99 0.33 1.98 0.66 3 1 C4.125 4.3125 4.125 4.3125 5 8 C5.309375 9.2065625 5.309375 9.2065625 5.625 10.4375 C5.74875 10.953125 5.8725 11.46875 6 12 C8.31 12 10.62 12 13 12 C12.67 12.99 12.34 13.98 12 15 C8.2064932 15.35288435 6.44058747 15.28393415 3.1875 13.1875 C0.81219928 10.81219928 0.06279502 9.31367178 -0.09765625 5.95703125 C-0.06510417 3.97135417 -0.03255208 1.98567708 0 0 Z " fill="#55A0A6" transform="translate(59,33)"/>
<path d="M0 0 C0.99 0.66 1.98 1.32 3 2 C2.34 5.3 1.68 8.6 1 12 C-0.65 12 -2.3 12 -4 12 C-5 11 -5 11 -5.375 8.8125 C-4.82787127 4.70903454 -2.79378955 3.00332377 0 0 Z " fill="#335E7A" transform="translate(51,110)"/>
<path d="M0 0 C1.32 0.33 2.64 0.66 4 1 C2.74905487 5.48255338 1.4141892 8.77036157 -2 12 C-5.75 12.8125 -5.75 12.8125 -9 13 C-8.401875 12.46375 -7.80375 11.9275 -7.1875 11.375 C-4.77467668 8.75536326 -3.50371201 6.21247566 -2 3 C-1.34 2.01 -0.68 1.02 0 0 Z " fill="#599CA1" transform="translate(63,82)"/>
<path d="M0 0 C0.66 0.33 1.32 0.66 2 1 C1.67 5.95 1.34 10.9 1 16 C-2 16 -2 16 -4 15 C-4.59720137 9.17728663 -2.528243 5.0790596 0 0 Z " fill="#3C6276" transform="translate(75,63)"/>
<path d="M0 0 C0.33 0.99 0.66 1.98 1 3 C0.67 3.66 0.34 4.32 0 5 C1.65 5.33 3.3 5.66 5 6 C5 6.99 5 7.98 5 9 C1.37 8.34 -2.26 7.68 -6 7 C-6.33 5.68 -6.66 4.36 -7 3 C-4.64046906 0.64046906 -3.22104383 0.50858587 0 0 Z " fill="#5EA7AD" transform="translate(21,123)"/>
<path d="M0 0 C0.99 0 1.98 0 3 0 C4.17571451 3.67410785 4.07366746 7.16929183 4 11 C3.195625 11.20625 2.39125 11.4125 1.5625 11.625 C0.716875 12.07875 -0.12875 12.5325 -1 13 C-1.89830839 16.05272465 -1.89830839 16.05272465 -2 19 C-2.33 19 -2.66 19 -3 19 C-3 16.36 -3 13.72 -3 11 C-2.34 11 -1.68 11 -1 11 C-0.67 7.37 -0.34 3.74 0 0 Z " fill="#2B5A78" transform="translate(101,43)"/>
<path d="M0 0 C0.33 0.99 0.66 1.98 1 3 C0.01 3.495 0.01 3.495 -1 4 C-0.01 4.99 0.98 5.98 2 7 C-1.33452849 8.42908364 -4.44955833 9.30723089 -8 10 C-10.00744615 10.64389782 -12.00945124 11.30562253 -14 12 C-13.67 11.01 -13.34 10.02 -13 9 C-11.15234375 8.26953125 -11.15234375 8.26953125 -8.9375 7.8125 C-7.83728516 7.57466797 -7.83728516 7.57466797 -6.71484375 7.33203125 C-6.14894531 7.22246094 -5.58304688 7.11289063 -5 7 C-5.33 5.02 -5.66 3.04 -6 1 C-4.02 0.67 -2.04 0.34 0 0 Z " fill="#305873" transform="translate(42,5)"/>
<path d="M0 0 C0.3125 3.25 0.3125 3.25 0 7 C-2.25 9.4375 -2.25 9.4375 -5 11 C-6.32 11 -7.64 11 -9 11 C-9.33 10.01 -9.66 9.02 -10 8 C-8.71451591 6.66070495 -7.42141845 5.32871357 -6.125 4 C-5.04605469 2.88625 -5.04605469 2.88625 -3.9453125 1.75 C-2 0 -2 0 0 0 Z " fill="#4A687E" transform="translate(23,15)"/>
<path d="M0 0 C1.55078125 0.98828125 1.55078125 0.98828125 3 3 C2.89140867 5.84978871 2.64357584 8.39495008 2.1875 11.1875 C2.07857422 11.93708984 1.96964844 12.68667969 1.85742188 13.45898438 C1.58651277 15.30823349 1.29519943 17.15447261 1 19 C0.34 19 -0.32 19 -1 19 C-2.21989687 12.90051567 -1.95686566 7.14520393 -1 1 C-0.67 0.67 -0.34 0.34 0 0 Z " fill="#4C6E82" transform="translate(5,42)"/>
<path d="M0 0 C0 1.65 0 3.3 0 5 C-0.969375 5.12375 -1.93875 5.2475 -2.9375 5.375 C-4.4534375 5.684375 -4.4534375 5.684375 -6 6 C-6.33 6.66 -6.66 7.32 -7 8 C-8.32 7.01 -9.64 6.02 -11 5 C-10.01 4.67 -9.02 4.34 -8 4 C-8 3.01 -8 2.02 -8 1 C-5.23735711 0.40267181 -2.83967231 0 0 0 Z " fill="#194D6A" transform="translate(51,4)"/>
<path d="M0 0 C0.66 0.33 1.32 0.66 2 1 C-0.64116988 4.61938095 -2.97413046 6.98706523 -7 9 C-7.66 9 -8.32 9 -9 9 C-9.33 9.99 -9.66 10.98 -10 12 C-10.99 11.67 -11.98 11.34 -13 11 C-11.52358991 7.110714 -9.51237303 5.81340016 -5.9375 3.8125 C-2.77914499 2.16365682 -2.77914499 2.16365682 0 0 Z " fill="#415A6C" transform="translate(84,91)"/>
<path d="M0 0 C0.66 0 1.32 0 2 0 C1.67 1.32 1.34 2.64 1 4 C1.99 4.33 2.98 4.66 4 5 C3.34 6.65 2.68 8.3 2 10 C0.68 9.67 -0.64 9.34 -2 9 C-1.34 6.03 -0.68 3.06 0 0 Z " fill="#23506E" transform="translate(70,74)"/>
<path d="M0 0 C0.33 0.66 0.66 1.32 1 2 C1.99 2.33 2.98 2.66 4 3 C2.7260411 5.03833424 1.38938077 7.03852126 0 9 C-0.66 9 -1.32 9 -2 9 C-2.6875 6.75 -2.6875 6.75 -3 4 C-1.5625 1.6875 -1.5625 1.6875 0 0 Z " fill="#33566E" transform="translate(13,24)"/>
<path d="M0 0 C1.65 0.33 3.3 0.66 5 1 C5 1.99 5 2.98 5 4 C3.02 4.99 1.04 5.98 -1 7 C-0.67 4.69 -0.34 2.38 0 0 Z " fill="#C8DDE0" transform="translate(106,27)"/>
<path d="M0 0 C1.32 0.66 2.64 1.32 4 2 C-0.29 2 -4.58 2 -9 2 C-9 1.34 -9 0.68 -9 0 C-5.88094953 -1.55952523 -3.35318513 -0.6359489 0 0 Z " fill="#2F5974" transform="translate(54,10)"/>
<path d="M0 0 C0.33 0.66 0.66 1.32 1 2 C1.66 2.33 2.32 2.66 3 3 C2.67 5.64 2.34 8.28 2 11 C1.34 11 0.68 11 0 11 C-1.28571429 3.57142857 -1.28571429 3.57142857 0 0 Z " fill="#416278" transform="translate(4,50)"/>
<path d="M0 0 C1.32 0.33 2.64 0.66 4 1 C3.34 2.32 2.68 3.64 2 5 C-1 5 -1 5 -3 4 C-2.01 2.68 -1.02 1.36 0 0 Z " fill="#4E9698" transform="translate(63,82)"/>
<path d="M0 0 C0.66 1.98 1.32 3.96 2 6 C0.68 6.33 -0.64 6.66 -2 7 C-1.67 6.01 -1.34 5.02 -1 4 C-1.99 3.01 -2.98 2.02 -4 1 C-2 0 -2 0 0 0 Z " fill="#4F98A0" transform="translate(94,38)"/>
<path d="M0 0 C2.64 0 5.28 0 8 0 C7.01 1.485 7.01 1.485 6 3 C3.5625 2.625 3.5625 2.625 1 2 C0.67 1.34 0.34 0.68 0 0 Z " fill="#63A8AE" transform="translate(63,25)"/>
<path d="M0 0 C0.66 0.33 1.32 0.66 2 1 C2 1.99 2 2.98 2 4 C0.02 4.33 -1.96 4.66 -4 5 C-3 2 -3 2 0 0 Z " fill="#699D9E" transform="translate(63,85)"/>
<path d="M0 0 C2.475 0.99 2.475 0.99 5 2 C4.34 2.66 3.68 3.32 3 4 C-0.125 3.625 -0.125 3.625 -3 3 C-2.01 2.01 -1.02 1.02 0 0 Z " fill="#5EA4AB" transform="translate(89,40)"/>
</svg>
